<?xml version="1.0" encoding="UTF-8"?>
<svg id="Layer_1" data-name="Layer 1" xmlns="http://www.w3.org/2000/svg" viewBox="0 0 1048.01 209.12">
  <defs>
    <style>
      .cls-1 {
        font-family: Poppins-SemiBold, Poppins;
        font-size: 84.08px;
        font-weight: 600;
      }

      .cls-2, .cls-3, .cls-4 {
        fill: #fff;
      }

      .cls-5, .cls-6 {
        fill: #2c365b;
      }

      .cls-3, .cls-6 {
        letter-spacing: -.02em;
      }

      .cls-7 {
        fill: #05cfab;
        letter-spacing: -.02em;
      }

      .cls-4 {
        font-family: Poppins-MediumItalic, Poppins;
        font-size: 51.73px;
        font-style: italic;
        font-weight: 500;
        letter-spacing: -.02em;
      }
    </style>
  </defs>
  <text class="cls-1" transform="translate(233.89 96.56)"><tspan class="cls-6" x="0" y="0">Cool</tspan><tspan class="cls-3" x="188.84" y="0">.MW</tspan><tspan class="cls-7" x="367.59" y="0"> </tspan><tspan class="cls-6" x="386" y="0">Domains</tspan></text>
  <text class="cls-4" transform="translate(233.89 164.43)"><tspan x="0" y="0">By Cool Enterprises Limited</tspan></text>
  <path class="cls-5" d="M102.67,75.05c-1.55,0-3.1-.57-4.32-1.72-2.51-2.38-2.61-6.35-.22-8.85l10.56-11.1c15.37-16.15,33.54-19.31,51.16-8.91,2.98,1.76,3.97,5.6,2.21,8.58-1.76,2.98-5.6,3.97-8.58,2.21-12.62-7.45-24.3-5.24-35.72,6.75l-10.55,11.1c-1.23,1.29-2.88,1.95-4.54,1.95Z"/>
  <path class="cls-2" d="M188.27,89.28h-33.38c-2.19,0-4.22-1.14-5.36-3.02-2.19-3.62-5.01-6.72-8.36-9.22-2.78-2.06-3.35-5.99-1.29-8.76,2.07-2.78,5.99-3.35,8.76-1.29,3.7,2.75,6.91,6.02,9.6,9.76h20.77c-2.68-5.17-6.33-9.87-10.81-13.86-2.58-2.3-2.81-6.26-.51-8.84,2.3-2.58,6.26-2.81,8.84-.51,8.38,7.46,14.49,16.95,17.66,27.44.02.07.04.14.06.2.57,1.87.24,3.91-.91,5.5-1.18,1.63-3.07,2.59-5.08,2.59ZM194.32,81.43s0,0,0,0c0,0,0,0,0,0Z"/>
  <path class="cls-2" d="M134.14,178.68c-2.98,0-5.63-2.14-6.16-5.18-.6-3.41,1.68-6.65,5.08-7.25,20.28-3.57,37.65-17.42,46.19-36.23h-21c-8.38,11.66-21.58,18.51-35.97,18.51-24.55,0-44.52-20.25-44.52-45.14,0-.62,0-1.23.04-1.84.31-8.25,3.1-16.37,8.06-23.43,1.99-2.83,5.9-3.51,8.73-1.52,2.83,1.99,3.51,5.9,1.52,8.73-3.57,5.07-5.57,10.87-5.79,16.76-.02.47-.03.89-.03,1.3,0,17.98,14.35,32.62,32,32.62,11.18,0,21.37-5.79,27.25-15.5,1.14-1.87,3.17-3.01,5.35-3.01h33.38c1.98,0,3.84.93,5.02,2.52s1.55,3.64.98,5.53c-8.16,27.35-31.33,48.17-59.04,53.04-.37.06-.73.1-1.09.1Z"/>
  <path class="cls-5" d="M66.67,151.04c-1.94,0-3.86-.9-5.08-2.6-9.49-13.13-14.5-28.72-14.5-45.06,0-42.22,24.28-70.51,63.37-73.84,3.45-.29,6.48,2.26,6.77,5.71.29,3.45-2.26,6.48-5.71,6.77-32.5,2.77-51.91,25.71-51.91,61.36,0,13.69,4.2,26.74,12.13,37.72,2.03,2.8,1.4,6.72-1.41,8.74-1.11.8-2.39,1.19-3.66,1.19Z"/>
  <path class="cls-5" d="M108.02,178.21c-.44,0-.88-.05-1.32-.14-10.16-2.18-19.62-6.41-28.11-12.57-2.8-2.03-3.42-5.95-1.39-8.75,2.03-2.8,5.95-3.42,8.75-1.39,7.07,5.13,14.94,8.65,23.38,10.46,3.38.72,5.54,4.05,4.81,7.44-.63,2.94-3.23,4.95-6.12,4.95Z"/>
</svg>