<?xml version="1.0" encoding="UTF-8"?>
<svg id="Layer_1" data-name="Layer 1" xmlns="http://www.w3.org/2000/svg" viewBox="0 0 1048.01 209.12">
  <defs>
    <style>
      .cls-1 {
        font-family: Poppins-SemiBold, Poppins;
        font-size: 84.08px;
        font-weight: 600;
      }

      .cls-2, .cls-3, .cls-4 {
        fill: #2c365b;
      }

      .cls-3 {
        letter-spacing: -.02em;
      }

      .cls-4, .cls-5 {
        letter-spacing: -.02em;
      }

      .cls-6 {
        fill: #ccc;
        font-family: Poppins-MediumItalic, Poppins;
        font-size: 51.73px;
        font-style: italic;
        font-weight: 500;
        letter-spacing: -.02em;
      }

      .cls-7 {
        fill: #08cea4;
      }

      .cls-5 {
        fill: #05cfab;
      }
    </style>
  </defs>
  <text class="cls-1" transform="translate(233.89 96.56)"><tspan class="cls-4" x="0" y="0">Cool </tspan><tspan class="cls-5" x="207.25" y="0">.MW </tspan><tspan class="cls-3" x="404.41" y="0">Domains</tspan></text>
  <text class="cls-6" transform="translate(233.89 164.43)"><tspan x="0" y="0">By Cool Enterprises Limited</tspan></text>
  <g>
    <path class="cls-7" d="M101.95,70.91c-1.61,0-3.23-.59-4.49-1.79-2.61-2.48-2.71-6.6-.23-9.21l10.98-11.55c15.99-16.79,34.88-20.08,53.2-9.26,3.1,1.83,4.13,5.82,2.3,8.92-1.83,3.1-5.82,4.13-8.92,2.3-13.12-7.75-25.27-5.45-37.14,7.02l-10.97,11.54c-1.28,1.35-3,2.03-4.72,2.03Z"/>
    <path class="cls-2" d="M190.97,85.71h-34.71c-2.28,0-4.39-1.19-5.57-3.14-2.28-3.77-5.21-6.99-8.69-9.59-2.89-2.15-3.48-6.23-1.34-9.11,2.15-2.89,6.23-3.48,9.11-1.34,3.84,2.86,7.19,6.26,9.99,10.15h21.6c-2.78-5.38-6.58-10.26-11.24-14.41-2.69-2.39-2.93-6.51-.53-9.2,2.39-2.69,6.51-2.93,9.2-.53,8.72,7.76,15.07,17.63,18.37,28.53.02.07.04.14.06.21.6,1.95.25,4.07-.95,5.72-1.22,1.69-3.19,2.7-5.28,2.7ZM197.26,77.55s0,0,0,0c0,0,0,0,0,0Z"/>
    <path class="cls-2" d="M134.67,178.68c-3.1,0-5.85-2.22-6.41-5.39-.62-3.54,1.74-6.92,5.29-7.54,21.09-3.71,39.16-18.12,48.04-37.68h-21.84c-8.71,12.12-22.44,19.25-37.41,19.25-25.53,0-46.3-21.06-46.3-46.95,0-.64.01-1.28.04-1.91.32-8.58,3.22-17.02,8.38-24.36,2.07-2.94,6.13-3.65,9.07-1.58,2.94,2.07,3.65,6.13,1.58,9.07-3.71,5.27-5.79,11.3-6.02,17.43-.02.49-.03.92-.03,1.35,0,18.7,14.93,33.92,33.28,33.92,11.63,0,22.22-6.03,28.34-16.12,1.18-1.95,3.29-3.14,5.57-3.14h34.71c2.06,0,3.99.97,5.22,2.62s1.61,3.78,1.02,5.75c-8.49,28.44-32.59,50.09-61.4,55.16-.38.07-.76.1-1.14.1Z"/>
    <path class="cls-7" d="M64.5,149.94c-2.02,0-4.01-.94-5.28-2.7-9.87-13.66-15.08-29.86-15.08-46.86,0-43.91,25.25-73.33,65.91-76.8,3.59-.3,6.74,2.35,7.04,5.94.31,3.58-2.35,6.74-5.94,7.04-33.8,2.88-53.98,26.74-53.98,63.82,0,14.24,4.36,27.81,12.62,39.23,2.11,2.92,1.45,6.99-1.47,9.09-1.15.83-2.49,1.23-3.81,1.23Z"/>
    <path class="cls-7" d="M107.5,178.19c-.45,0-.91-.05-1.37-.15-10.57-2.27-20.41-6.66-29.24-13.07-2.91-2.11-3.56-6.19-1.45-9.1,2.11-2.91,6.18-3.56,9.1-1.45,7.35,5.33,15.53,8.99,24.32,10.88,3.52.75,5.76,4.22,5,7.73-.66,3.06-3.36,5.15-6.36,5.15Z"/>
  </g>
</svg>