<?xml version="1.0" encoding="UTF-8"?>
<svg id="Layer_1" data-name="Layer 1" xmlns="http://www.w3.org/2000/svg" viewBox="0 0 824.88 155.12">
  <defs>
    <style>
      .cls-1 {
        fill: #05cfab;
      }

      .cls-2 {
        fill: #fff;
      }

      .cls-3 {
        fill: #08cea4;
      }
    </style>
  </defs>
  <g>
    <path class="cls-2" d="M193.67,24.01c2.5-4.39,5.92-7.81,10.26-10.26,4.33-2.45,9.19-3.67,14.58-3.67,6.3,0,11.82,1.62,16.55,4.84,4.74,3.23,8.05,7.7,9.93,13.41h-13c-1.29-2.69-3.11-4.71-5.45-6.06-2.34-1.34-5.05-2.02-8.12-2.02-3.28,0-6.21.77-8.76,2.3-2.56,1.53-4.55,3.7-5.98,6.5-1.43,2.8-2.14,6.08-2.14,9.85s.71,6.99,2.14,9.81c1.43,2.83,3.42,5.01,5.98,6.54,2.56,1.53,5.48,2.3,8.76,2.3,3.07,0,5.77-.69,8.12-2.06s4.16-3.4,5.45-6.1h13c-1.88,5.76-5.18,10.24-9.89,13.45-4.71,3.2-10.24,4.8-16.59,4.8-5.38,0-10.24-1.22-14.58-3.67-4.33-2.45-7.75-5.86-10.26-10.22-2.5-4.36-3.76-9.31-3.76-14.86s1.25-10.51,3.76-14.9Z"/>
    <path class="cls-2" d="M261.38,65.04c-3.45-1.91-6.15-4.62-8.12-8.12-1.97-3.5-2.95-7.54-2.95-12.11s1.01-8.61,3.03-12.11c2.02-3.5,4.78-6.2,8.28-8.12,3.5-1.91,7.4-2.87,11.71-2.87s8.21.96,11.71,2.87c3.5,1.91,6.26,4.62,8.28,8.12,2.02,3.5,3.03,7.54,3.03,12.11s-1.04,8.61-3.11,12.11c-2.07,3.5-4.87,6.21-8.4,8.12-3.53,1.91-7.47,2.87-11.83,2.87s-8.18-.96-11.63-2.87ZM278.78,56.56c1.8-1,3.24-2.49,4.32-4.48,1.08-1.99,1.62-4.41,1.62-7.27,0-4.25-1.12-7.52-3.35-9.81-2.23-2.29-4.97-3.43-8.2-3.43s-5.94,1.14-8.12,3.43-3.27,5.56-3.27,9.81,1.06,7.52,3.19,9.81c2.13,2.29,4.81,3.43,8.04,3.43,2.05,0,3.97-.5,5.77-1.49Z"/>
    <path class="cls-2" d="M311.37,65.04c-3.45-1.91-6.15-4.62-8.12-8.12-1.97-3.5-2.95-7.54-2.95-12.11s1.01-8.61,3.03-12.11c2.02-3.5,4.78-6.2,8.28-8.12,3.5-1.91,7.4-2.87,11.71-2.87s8.21.96,11.71,2.87c3.5,1.91,6.26,4.62,8.28,8.12,2.02,3.5,3.03,7.54,3.03,12.11s-1.04,8.61-3.11,12.11c-2.07,3.5-4.87,6.21-8.4,8.12-3.53,1.91-7.47,2.87-11.83,2.87s-8.18-.96-11.63-2.87ZM328.77,56.56c1.8-1,3.24-2.49,4.32-4.48,1.08-1.99,1.62-4.41,1.62-7.27,0-4.25-1.12-7.52-3.35-9.81-2.23-2.29-4.97-3.43-8.2-3.43s-5.94,1.14-8.12,3.43-3.27,5.56-3.27,9.81,1.06,7.52,3.19,9.81c2.13,2.29,4.81,3.43,8.04,3.43,2.05,0,3.97-.5,5.77-1.49Z"/>
    <path class="cls-2" d="M364.42,7.42v59.76h-11.31V7.42h11.31Z"/>
    <path class="cls-2" d="M403.02,19.93v14.13h18.98v8.96h-18.98v14.94h21.4v9.21h-32.71V10.73h32.71v9.21h-21.4Z"/>
    <path class="cls-2" d="M470.86,26.84c3.28,3.37,4.93,8.06,4.93,14.09v26.25h-11.31v-24.71c0-3.55-.89-6.29-2.67-8.2-1.78-1.91-4.2-2.87-7.27-2.87s-5.59.96-7.39,2.87c-1.8,1.91-2.71,4.64-2.71,8.2v24.71h-11.31V22.44h11.31v5.57c1.51-1.94,3.43-3.46,5.77-4.56,2.34-1.1,4.91-1.66,7.71-1.66,5.33,0,9.64,1.68,12.92,5.05Z"/>
    <path class="cls-2" d="M498.15,31.72v21.64c0,1.51.36,2.6,1.09,3.27.73.67,1.95,1.01,3.67,1.01h5.25v9.53h-7.11c-9.53,0-14.29-4.63-14.29-13.89v-21.56h-5.33v-9.29h5.33v-11.06h11.39v11.06h10.01v9.29h-10.01Z"/>
    <path class="cls-2" d="M556.05,48.2h-32.71c.27,3.23,1.4,5.76,3.39,7.59,1.99,1.83,4.44,2.75,7.35,2.75,4.2,0,7.19-1.8,8.96-5.41h12.19c-1.29,4.31-3.77,7.85-7.43,10.62-3.66,2.77-8.16,4.16-13.49,4.16-4.31,0-8.17-.96-11.59-2.87-3.42-1.91-6.08-4.62-7.99-8.12-1.91-3.5-2.87-7.54-2.87-12.11s.94-8.69,2.83-12.19c1.88-3.5,4.52-6.19,7.91-8.08,3.39-1.88,7.29-2.83,11.71-2.83s8.06.92,11.43,2.75c3.36,1.83,5.98,4.43,7.83,7.79,1.86,3.37,2.79,7.23,2.79,11.59,0,1.61-.11,3.07-.32,4.36ZM544.67,40.61c-.05-2.91-1.1-5.24-3.15-6.99-2.05-1.75-4.55-2.62-7.51-2.62-2.8,0-5.16.85-7.07,2.54-1.91,1.7-3.08,4.05-3.51,7.07h21.24Z"/>
    <path class="cls-2" d="M580.08,23.81c2.34-1.35,5.02-2.02,8.04-2.02v11.87h-2.99c-3.55,0-6.23.84-8.04,2.5-1.8,1.67-2.71,4.58-2.71,8.72v22.29h-11.31V22.44h11.31v6.94c1.45-2.37,3.35-4.23,5.69-5.57Z"/>
    <path class="cls-2" d="M611.49,23.77c2.56-1.37,5.48-2.06,8.76-2.06,3.82,0,7.28.94,10.38,2.83,3.09,1.88,5.54,4.56,7.35,8.04,1.8,3.47,2.71,7.5,2.71,12.07s-.9,8.63-2.71,12.15c-1.8,3.53-4.25,6.26-7.35,8.2-3.1,1.94-6.55,2.91-10.38,2.91-3.28,0-6.18-.67-8.68-2.02-2.5-1.34-4.54-3.04-6.1-5.09v27.7h-11.31V22.44h11.31v6.46c1.45-2.04,3.46-3.75,6.02-5.13ZM627.48,37.66c-1.1-1.96-2.56-3.46-4.36-4.48-1.8-1.02-3.75-1.53-5.85-1.53s-3.97.52-5.77,1.57c-1.8,1.05-3.26,2.57-4.36,4.56-1.1,1.99-1.66,4.33-1.66,7.03s.55,5.03,1.66,7.03c1.1,1.99,2.56,3.51,4.36,4.56,1.8,1.05,3.73,1.58,5.77,1.58s4.05-.54,5.85-1.62c1.8-1.08,3.26-2.61,4.36-4.6,1.1-1.99,1.66-4.36,1.66-7.11s-.55-5.02-1.66-6.99Z"/>
    <path class="cls-2" d="M664.38,23.81c2.34-1.35,5.02-2.02,8.04-2.02v11.87h-2.99c-3.55,0-6.23.84-8.04,2.5-1.8,1.67-2.71,4.58-2.71,8.72v22.29h-11.31V22.44h11.31v6.94c1.45-2.37,3.35-4.23,5.69-5.57Z"/>
    <path class="cls-2" d="M679.24,15.21c-1.32-1.26-1.98-2.84-1.98-4.72s.66-3.46,1.98-4.72c1.32-1.26,2.97-1.9,4.97-1.9s3.65.63,4.97,1.9c1.32,1.27,1.98,2.84,1.98,4.72s-.66,3.46-1.98,4.72c-1.32,1.27-2.98,1.9-4.97,1.9s-3.65-.63-4.97-1.9ZM689.78,22.44v44.74h-11.31V22.44h11.31Z"/>
    <path class="cls-2" d="M706.66,65.92c-2.91-1.32-5.21-3.11-6.9-5.37-1.7-2.26-2.62-4.76-2.79-7.51h11.39c.21,1.72,1.06,3.15,2.54,4.28,1.48,1.13,3.32,1.7,5.53,1.7s3.84-.43,5.05-1.29c1.21-.86,1.82-1.96,1.82-3.31,0-1.45-.74-2.54-2.22-3.27-1.48-.73-3.84-1.52-7.07-2.38-3.34-.81-6.07-1.64-8.2-2.5-2.13-.86-3.96-2.18-5.49-3.96-1.53-1.78-2.3-4.17-2.3-7.19,0-2.48.71-4.74,2.14-6.78,1.43-2.04,3.47-3.66,6.14-4.84,2.67-1.18,5.8-1.78,9.41-1.78,5.33,0,9.58,1.33,12.76,4,3.18,2.67,4.93,6.26,5.25,10.78h-10.82c-.16-1.78-.9-3.19-2.22-4.24-1.32-1.05-3.08-1.57-5.29-1.57-2.05,0-3.62.38-4.72,1.13-1.1.75-1.66,1.8-1.66,3.15,0,1.51.75,2.65,2.26,3.43,1.51.78,3.85,1.57,7.03,2.38,3.23.81,5.9,1.64,8,2.5,2.1.86,3.92,2.19,5.45,4,1.53,1.8,2.33,4.19,2.38,7.15,0,2.58-.71,4.9-2.14,6.95-1.43,2.05-3.47,3.65-6.14,4.8s-5.77,1.74-9.33,1.74-6.95-.66-9.85-1.98Z"/>
    <path class="cls-2" d="M783.13,48.2h-32.71c.27,3.23,1.4,5.76,3.39,7.59,1.99,1.83,4.44,2.75,7.35,2.75,4.2,0,7.19-1.8,8.96-5.41h12.19c-1.29,4.31-3.77,7.85-7.43,10.62-3.66,2.77-8.16,4.16-13.49,4.16-4.31,0-8.17-.96-11.59-2.87-3.42-1.91-6.08-4.62-7.99-8.12-1.91-3.5-2.87-7.54-2.87-12.11s.94-8.69,2.83-12.19c1.88-3.5,4.52-6.19,7.91-8.08,3.39-1.88,7.29-2.83,11.71-2.83s8.06.92,11.43,2.75c3.36,1.83,5.98,4.43,7.83,7.79,1.86,3.37,2.79,7.23,2.79,11.59,0,1.61-.11,3.07-.32,4.36ZM771.75,40.61c-.05-2.91-1.1-5.24-3.15-6.99-2.05-1.75-4.55-2.62-7.51-2.62-2.8,0-5.16.85-7.07,2.54-1.91,1.7-3.08,4.05-3.51,7.07h21.24Z"/>
    <path class="cls-2" d="M797.43,65.92c-2.91-1.32-5.21-3.11-6.9-5.37-1.7-2.26-2.62-4.76-2.79-7.51h11.39c.21,1.72,1.06,3.15,2.54,4.28,1.48,1.13,3.32,1.7,5.53,1.7s3.84-.43,5.05-1.29c1.21-.86,1.82-1.96,1.82-3.31,0-1.45-.74-2.54-2.22-3.27-1.48-.73-3.84-1.52-7.07-2.38-3.34-.81-6.07-1.64-8.2-2.5-2.13-.86-3.96-2.18-5.49-3.96-1.53-1.78-2.3-4.17-2.3-7.19,0-2.48.71-4.74,2.14-6.78,1.43-2.04,3.47-3.66,6.14-4.84,2.67-1.18,5.8-1.78,9.41-1.78,5.33,0,9.58,1.33,12.76,4,3.18,2.67,4.93,6.26,5.25,10.78h-10.82c-.16-1.78-.9-3.19-2.22-4.24-1.32-1.05-3.08-1.57-5.29-1.57-2.05,0-3.62.38-4.72,1.13-1.1.75-1.66,1.8-1.66,3.15,0,1.51.75,2.65,2.26,3.43,1.51.78,3.85,1.57,7.03,2.38,3.23.81,5.9,1.64,8,2.5,2.1.86,3.92,2.19,5.45,4,1.53,1.8,2.33,4.19,2.38,7.15,0,2.58-.71,4.9-2.14,6.95-1.43,2.05-3.47,3.65-6.14,4.8s-5.77,1.74-9.33,1.74-6.95-.66-9.85-1.98Z"/>
    <path class="cls-1" d="M192.62,145.84c-1.32-1.26-1.98-2.84-1.98-4.72s.66-3.46,1.98-4.72c1.32-1.26,3-1.9,5.05-1.9s3.63.63,4.93,1.9c1.29,1.27,1.94,2.84,1.94,4.72s-.65,3.46-1.94,4.72c-1.29,1.27-2.93,1.9-4.93,1.9s-3.73-.63-5.05-1.9Z"/>
    <path class="cls-1" d="M273.58,90.81v56.37h-11.31v-36.66l-15.1,36.66h-8.56l-15.18-36.66v36.66h-11.31v-56.37h12.84l17.93,41.91,17.93-41.91h12.76Z"/>
    <path class="cls-1" d="M358.53,90.81l-15.75,56.37h-13.33l-10.58-40.14-11.06,40.14-13.24.08-15.18-56.45h12.11l9.93,43.77,11.47-43.77h12.6l10.82,43.53,10.01-43.53h12.19Z"/>
    <path class="cls-2" d="M417.36,94.28c4.5,2.32,7.97,5.61,10.42,9.89,2.45,4.28,3.67,9.25,3.67,14.9s-1.22,10.59-3.67,14.82c-2.45,4.23-5.92,7.5-10.42,9.81-4.5,2.32-9.7,3.47-15.63,3.47h-19.7v-56.37h19.7c5.92,0,11.13,1.16,15.63,3.47ZM415.06,132.72c3.23-3.23,4.85-7.78,4.85-13.65s-1.62-10.46-4.85-13.77c-3.23-3.31-7.81-4.97-13.73-4.97h-8v37.23h8c5.92,0,10.5-1.61,13.73-4.84Z"/>
    <path class="cls-2" d="M446.63,145.04c-3.45-1.91-6.15-4.62-8.12-8.12-1.97-3.5-2.95-7.54-2.95-12.11s1.01-8.61,3.03-12.11c2.02-3.5,4.78-6.2,8.28-8.12,3.5-1.91,7.4-2.87,11.71-2.87s8.21.96,11.71,2.87c3.5,1.91,6.26,4.62,8.28,8.12,2.02,3.5,3.03,7.54,3.03,12.11s-1.04,8.61-3.11,12.11c-2.07,3.5-4.87,6.21-8.4,8.12-3.53,1.91-7.47,2.87-11.83,2.87s-8.18-.96-11.63-2.87ZM464.03,136.56c1.8-1,3.24-2.49,4.32-4.48,1.08-1.99,1.62-4.41,1.62-7.27,0-4.25-1.12-7.52-3.35-9.81-2.23-2.29-4.97-3.43-8.2-3.43s-5.94,1.14-8.12,3.43-3.27,5.56-3.27,9.81,1.06,7.52,3.19,9.81c2.13,2.29,4.81,3.43,8.04,3.43,2.05,0,3.97-.5,5.77-1.49Z"/>
    <path class="cls-2" d="M557.22,106.84c3.36,3.37,5.05,8.06,5.05,14.09v26.25h-11.31v-24.71c0-3.5-.89-6.18-2.67-8.04-1.78-1.86-4.2-2.79-7.27-2.79s-5.5.93-7.31,2.79-2.71,4.54-2.71,8.04v24.71h-11.31v-24.71c0-3.5-.89-6.18-2.67-8.04s-4.2-2.79-7.27-2.79-5.59.93-7.39,2.79c-1.8,1.86-2.71,4.54-2.71,8.04v24.71h-11.31v-44.74h11.31v5.41c1.45-1.88,3.32-3.36,5.61-4.44,2.29-1.08,4.8-1.62,7.55-1.62,3.5,0,6.62.74,9.37,2.22,2.75,1.48,4.87,3.59,6.38,6.34,1.45-2.58,3.57-4.66,6.34-6.22,2.77-1.56,5.77-2.34,9-2.34,5.49,0,9.92,1.68,13.28,5.05Z"/>
    <path class="cls-2" d="M571.27,112.61c1.8-3.5,4.25-6.19,7.35-8.08,3.1-1.88,6.55-2.83,10.38-2.83,3.34,0,6.26.67,8.76,2.02,2.5,1.35,4.51,3.04,6.02,5.09v-6.38h11.39v44.74h-11.39v-6.54c-1.45,2.1-3.46,3.84-6.02,5.21-2.56,1.37-5.51,2.06-8.84,2.06-3.77,0-7.2-.97-10.3-2.91-3.1-1.94-5.54-4.67-7.35-8.2-1.8-3.53-2.71-7.58-2.71-12.15s.9-8.53,2.71-12.03ZM602.16,117.74c-1.08-1.96-2.53-3.47-4.36-4.52-1.83-1.05-3.8-1.57-5.9-1.57s-4.04.51-5.81,1.53c-1.78,1.02-3.22,2.52-4.32,4.48-1.1,1.97-1.66,4.29-1.66,6.99s.55,5.05,1.66,7.07c1.1,2.02,2.56,3.57,4.36,4.64,1.8,1.08,3.73,1.62,5.77,1.62s4.06-.53,5.9-1.58c1.83-1.05,3.28-2.56,4.36-4.52,1.08-1.96,1.62-4.32,1.62-7.07s-.54-5.1-1.62-7.07Z"/>
    <path class="cls-2" d="M625.46,95.21c-1.32-1.26-1.98-2.84-1.98-4.72s.66-3.46,1.98-4.72c1.32-1.26,2.97-1.9,4.97-1.9s3.65.63,4.97,1.9c1.32,1.27,1.98,2.84,1.98,4.72s-.66,3.46-1.98,4.72c-1.32,1.27-2.98,1.9-4.97,1.9s-3.65-.63-4.97-1.9ZM636,102.44v44.74h-11.31v-44.74h11.31Z"/>
    <path class="cls-2" d="M683.32,106.84c3.28,3.37,4.93,8.06,4.93,14.09v26.25h-11.31v-24.71c0-3.55-.89-6.29-2.67-8.2-1.78-1.91-4.2-2.87-7.27-2.87s-5.59.96-7.39,2.87c-1.8,1.91-2.71,4.64-2.71,8.2v24.71h-11.31v-44.74h11.31v5.57c1.51-1.94,3.43-3.46,5.77-4.56,2.34-1.1,4.91-1.66,7.71-1.66,5.33,0,9.64,1.68,12.92,5.05Z"/>
    <path class="cls-2" d="M704.72,145.92c-2.91-1.32-5.21-3.11-6.9-5.37-1.7-2.26-2.62-4.76-2.79-7.51h11.39c.21,1.72,1.06,3.15,2.54,4.28,1.48,1.13,3.32,1.7,5.53,1.7s3.84-.43,5.05-1.29c1.21-.86,1.82-1.96,1.82-3.31,0-1.45-.74-2.54-2.22-3.27-1.48-.73-3.84-1.52-7.07-2.38-3.34-.81-6.07-1.64-8.2-2.5-2.13-.86-3.96-2.18-5.49-3.96-1.53-1.78-2.3-4.17-2.3-7.19,0-2.48.71-4.74,2.14-6.78,1.43-2.04,3.47-3.66,6.14-4.84,2.67-1.18,5.8-1.78,9.41-1.78,5.33,0,9.58,1.33,12.76,4,3.18,2.67,4.93,6.26,5.25,10.78h-10.82c-.16-1.78-.9-3.19-2.22-4.24-1.32-1.05-3.08-1.57-5.29-1.57-2.05,0-3.62.38-4.72,1.13-1.1.75-1.66,1.8-1.66,3.15,0,1.51.75,2.65,2.26,3.43,1.51.78,3.85,1.57,7.03,2.38,3.23.81,5.9,1.64,8,2.5,2.1.86,3.92,2.19,5.45,4,1.53,1.8,2.33,4.19,2.38,7.15,0,2.58-.71,4.9-2.14,6.95-1.43,2.05-3.47,3.65-6.14,4.8s-5.77,1.74-9.33,1.74-6.95-.66-9.85-1.98Z"/>
  </g>
  <g>
    <path class="cls-3" d="M57.82,47.35c-1.61,0-3.23-.59-4.49-1.79-2.61-2.48-2.71-6.6-.23-9.21l10.98-11.55c15.99-16.79,34.88-20.08,53.2-9.26,3.1,1.83,4.13,5.82,2.3,8.92-1.83,3.1-5.82,4.13-8.92,2.3-13.12-7.75-25.27-5.45-37.14,7.02l-10.97,11.54c-1.28,1.35-3,2.03-4.72,2.03Z"/>
    <path class="cls-2" d="M146.84,62.15h-34.71c-2.28,0-4.39-1.19-5.57-3.14-2.28-3.77-5.21-6.99-8.69-9.59-2.89-2.15-3.48-6.23-1.34-9.11,2.15-2.89,6.23-3.48,9.11-1.34,3.84,2.86,7.19,6.26,9.99,10.15h21.6c-2.78-5.38-6.58-10.26-11.24-14.41-2.69-2.39-2.93-6.51-.53-9.2,2.39-2.69,6.51-2.93,9.2-.53,8.72,7.76,15.07,17.63,18.37,28.53.02.07.04.14.06.21.6,1.95.25,4.07-.95,5.72-1.22,1.69-3.19,2.7-5.28,2.7ZM153.13,53.99s0,0,0,0c0,0,0,0,0,0Z"/>
    <path class="cls-2" d="M90.54,155.12c-3.1,0-5.85-2.22-6.41-5.39-.62-3.54,1.74-6.92,5.29-7.54,21.09-3.71,39.16-18.12,48.04-37.68h-21.84c-8.71,12.12-22.44,19.25-37.41,19.25-25.53,0-46.3-21.06-46.3-46.95,0-.64.01-1.28.04-1.91.32-8.58,3.22-17.02,8.38-24.36,2.07-2.94,6.13-3.65,9.07-1.58,2.94,2.07,3.65,6.13,1.58,9.07-3.71,5.27-5.79,11.3-6.02,17.43-.02.49-.03.92-.03,1.35,0,18.7,14.93,33.92,33.28,33.92,11.63,0,22.22-6.03,28.34-16.12,1.18-1.95,3.29-3.14,5.57-3.14h34.71c2.06,0,3.99.97,5.22,2.62s1.61,3.78,1.02,5.75c-8.49,28.44-32.59,50.09-61.4,55.16-.38.07-.76.1-1.14.1Z"/>
    <path class="cls-3" d="M20.37,126.38c-2.02,0-4.01-.94-5.28-2.7C5.22,110.02,0,93.82,0,76.82,0,32.91,25.25,3.49,65.91.02c3.59-.3,6.74,2.35,7.04,5.94.31,3.58-2.35,6.74-5.94,7.04-33.8,2.88-53.98,26.74-53.98,63.82,0,14.24,4.36,27.81,12.62,39.23,2.11,2.92,1.45,6.99-1.47,9.09-1.15.83-2.49,1.23-3.81,1.23Z"/>
    <path class="cls-3" d="M63.37,154.63c-.45,0-.91-.05-1.37-.15-10.57-2.27-20.41-6.66-29.24-13.07-2.91-2.11-3.56-6.19-1.45-9.1,2.11-2.91,6.18-3.56,9.1-1.45,7.35,5.33,15.53,8.99,24.32,10.88,3.52.75,5.76,4.22,5,7.73-.66,3.06-3.36,5.15-6.36,5.15Z"/>
  </g>
</svg>