<?xml version="1.0" encoding="UTF-8"?>
<svg id="Layer_1" data-name="Layer 1" xmlns="http://www.w3.org/2000/svg" viewBox="0 0 1048.01 209.12">
  <defs>
    <style>
      .cls-1 {
        fill: #dcfff8;
      }

      .cls-2 {
        font-family: Poppins-SemiBold, Poppins;
        font-size: 84.08px;
        font-weight: 600;
        letter-spacing: -.02em;
      }

      .cls-3 {
        fill: #05cfab;
      }

      .cls-4 {
        fill: #fff;
        font-family: Poppins-MediumItalic, Poppins;
        font-size: 51.73px;
        font-style: italic;
        font-weight: 500;
        letter-spacing: -.02em;
      }

      .cls-5 {
        fill: #08cea4;
      }
    </style>
  </defs>
  <text class="cls-2" transform="translate(233.89 94.56)"><tspan class="cls-1" x="0" y="0">Cool </tspan><tspan class="cls-3" x="207.25" y="0">.MW</tspan><tspan class="cls-1" x="386" y="0" xml:space="preserve"> Domains</tspan></text>
  <text class="cls-4" transform="translate(233.89 164.43)"><tspan x="0" y="0">By Cool Enterprises Limited</tspan></text>
  <g>
    <path class="cls-3" d="M192.36,86.16h-32.93c-2.16,0-4.17-1.13-5.28-2.98-2.16-3.57-4.94-6.63-8.25-9.09-2.74-2.04-3.31-5.91-1.27-8.64,2.04-2.74,5.91-3.3,8.64-1.27,3.64,2.71,6.82,5.94,9.47,9.63h20.49c-2.64-5.1-6.25-9.74-10.66-13.67-2.55-2.27-2.77-6.17-.51-8.72,2.27-2.55,6.17-2.78,8.72-.51,8.27,7.36,14.29,16.72,17.42,27.07.02.07.04.13.06.2.57,1.85.23,3.86-.9,5.43-1.16,1.61-3.02,2.56-5.01,2.56ZM198.33,78.42s0,0,0,0c0,0,0,0,0,0Z"/>
    <path class="cls-3" d="M138.96,174.35c-2.94,0-5.55-2.11-6.08-5.11-.59-3.36,1.65-6.56,5.01-7.15,20-3.52,37.14-17.19,45.57-35.74h-20.72c-8.26,11.5-21.28,18.26-35.48,18.26-24.22,0-43.92-19.98-43.92-44.53,0-.61,0-1.21.04-1.81.3-8.13,3.06-16.15,7.95-23.11,1.96-2.79,5.82-3.46,8.61-1.5,2.79,1.96,3.46,5.82,1.5,8.61-3.52,5-5.49,10.72-5.71,16.53-.02.47-.03.87-.03,1.28,0,17.74,14.16,32.17,31.56,32.17,11.03,0,21.08-5.72,26.88-15.29,1.12-1.85,3.12-2.97,5.28-2.97h32.93c1.95,0,3.79.92,4.95,2.49,1.17,1.56,1.52,3.59.97,5.46-8.05,26.98-30.91,47.52-58.24,52.32-.36.06-.72.09-1.08.09Z"/>
  </g>
  <g>
    <path class="cls-1" d="M107.92,72.12c-1.53,0-3.06-.56-4.26-1.7-2.47-2.35-2.57-6.26-.22-8.73l10.41-10.95c15.16-15.93,33.09-19.05,50.47-8.79,2.94,1.73,3.91,5.52,2.18,8.46-1.73,2.94-5.52,3.92-8.46,2.18-12.44-7.35-23.97-5.17-35.23,6.66l-10.41,10.95c-1.21,1.28-2.85,1.92-4.48,1.92Z"/>
    <path class="cls-1" d="M72.4,147.08c-1.92,0-3.81-.89-5.01-2.56-9.36-12.96-14.31-28.33-14.31-44.45,0-41.65,23.95-69.56,62.51-72.84,3.4-.29,6.39,2.23,6.68,5.63.29,3.4-2.23,6.39-5.63,6.68-32.06,2.73-51.21,25.36-51.21,60.53,0,13.51,4.14,26.38,11.97,37.21,2,2.77,1.38,6.63-1.39,8.63-1.09.79-2.36,1.17-3.61,1.17Z"/>
  </g>
  <path class="cls-5" d="M113.19,173.88c-.43,0-.86-.05-1.3-.14-10.03-2.15-19.36-6.32-27.73-12.4-2.76-2-3.38-5.87-1.37-8.63,2-2.76,5.87-3.38,8.63-1.37,6.97,5.06,14.73,8.53,23.06,10.32,3.34.71,5.46,4,4.75,7.34-.62,2.9-3.18,4.88-6.03,4.88Z"/>
</svg>