<?xml version="1.0" encoding="UTF-8"?>
<svg id="Layer_1" data-name="Layer 1" xmlns="http://www.w3.org/2000/svg" viewBox="0 0 1048.01 209.12">
  <defs>
    <style>
      .cls-1 {
        font-family: Poppins-SemiBold, Poppins;
        font-size: 84.08px;
        font-weight: 600;
      }

      .cls-2 {
        fill: #dcfff8;
        font-family: Poppins-MediumItalic, Poppins;
        font-size: 51.73px;
        font-style: italic;
        font-weight: 500;
        letter-spacing: -.02em;
      }

      .cls-3, .cls-4, .cls-5 {
        fill: #fff;
      }

      .cls-4 {
        letter-spacing: -.02em;
      }

      .cls-6, .cls-5 {
        letter-spacing: -.02em;
      }

      .cls-6, .cls-7 {
        fill: #08cea4;
      }
    </style>
  </defs>
  <text class="cls-1" transform="translate(233.89 100.56)"><tspan class="cls-5" x="0" y="0">Cool</tspan><tspan class="cls-6" x="188.84" y="0" xml:space="preserve"> .MW </tspan><tspan class="cls-4" x="404.41" y="0">Domains</tspan></text>
  <text class="cls-2" transform="translate(233.89 164.43)"><tspan x="0" y="0">By Cool Enterprises Limited</tspan></text>
  <path class="cls-7" d="M105.91,77.07c-1.45,0-2.89-.53-4.02-1.61-2.34-2.22-2.43-5.92-.21-8.25l9.84-10.35c14.33-15.05,31.26-17.99,47.68-8.3,2.78,1.64,3.7,5.22,2.06,7.99-1.64,2.78-5.22,3.7-7.99,2.06-11.76-6.94-22.64-4.88-33.29,6.29l-9.84,10.34c-1.15,1.21-2.69,1.81-4.23,1.81Z"/>
  <path class="cls-3" d="M185.68,90.34h-31.11c-2.04,0-3.94-1.07-4.99-2.81-2.04-3.37-4.66-6.27-7.79-8.59-2.59-1.92-3.12-5.58-1.2-8.17,1.92-2.59,5.58-3.12,8.17-1.2,3.44,2.56,6.44,5.61,8.95,9.1h19.35c-2.49-4.82-5.9-9.2-10.07-12.91-2.41-2.14-2.62-5.83-.48-8.24,2.14-2.41,5.83-2.62,8.24-.48,7.81,6.96,13.5,15.8,16.46,25.57.02.06.04.13.05.19.54,1.75.22,3.65-.85,5.13-1.1,1.52-2.86,2.42-4.73,2.42ZM191.32,83.03s0,0,0,0c0,0,0,0,0,0Z"/>
  <path class="cls-3" d="M135.23,173.65c-2.78,0-5.24-1.99-5.74-4.83-.56-3.18,1.56-6.2,4.74-6.76,18.9-3.32,35.09-16.24,43.05-33.77h-19.57c-7.81,10.86-20.11,17.25-33.52,17.25-22.88,0-41.49-18.87-41.49-42.07,0-.57,0-1.15.04-1.71.29-7.69,2.89-15.26,7.51-21.83,1.85-2.64,5.5-3.27,8.13-1.42,2.64,1.85,3.27,5.5,1.42,8.13-3.32,4.73-5.19,10.13-5.4,15.62-.02.44-.03.83-.03,1.21,0,16.76,13.38,30.4,29.82,30.4,10.42,0,19.91-5.4,25.4-14.44,1.06-1.74,2.95-2.81,4.99-2.81h31.11c1.84,0,3.58.87,4.68,2.35s1.44,3.39.91,5.16c-7.6,25.49-29.2,44.89-55.02,49.43-.34.06-.68.09-1.02.09Z"/>
  <path class="cls-7" d="M72.35,147.9c-1.81,0-3.6-.84-4.74-2.42-8.84-12.24-13.52-26.76-13.52-41.99,0-39.35,22.63-65.72,59.06-68.82,3.21-.27,6.04,2.11,6.31,5.32.27,3.21-2.11,6.04-5.32,6.31-30.29,2.58-48.38,23.96-48.38,57.19,0,12.76,3.91,24.92,11.31,35.16,1.89,2.61,1.3,6.26-1.31,8.15-1.03.75-2.23,1.11-3.41,1.11Z"/>
  <path class="cls-3" d="M110.89,173.22c-.41,0-.82-.04-1.23-.13-9.47-2.03-18.29-5.97-26.2-11.71-2.61-1.89-3.19-5.54-1.3-8.15,1.89-2.61,5.54-3.19,8.15-1.3,6.59,4.78,13.92,8.06,21.79,9.75,3.15.68,5.16,3.78,4.48,6.93-.59,2.74-3.01,4.62-5.7,4.62Z"/>
</svg>