<?xml version="1.0" encoding="UTF-8"?>
<svg id="Layer_1" data-name="Layer 1" xmlns="http://www.w3.org/2000/svg" viewBox="0 0 620.04 209.12">
  <defs>
    <style>
      .cls-1, .cls-2, .cls-3 {
        fill: #fff;
      }

      .cls-4, .cls-5, .cls-6 {
        fill: #2c365b;
      }

      .cls-7 {
        font-family: Poppins-Bold, Poppins;
        font-size: 84.08px;
        font-weight: 700;
      }

      .cls-5 {
        letter-spacing: -.02em;
      }

      .cls-2 {
        font-family: Poppins-Medium, Poppins;
        font-size: 29.4px;
        font-weight: 500;
      }

      .cls-3, .cls-6 {
        letter-spacing: -.02em;
      }
    </style>
  </defs>
  <text class="cls-7" transform="translate(219.28 71.68)"><tspan class="cls-5" x="0" y="0">Cool </tspan><tspan class="cls-3" x="205.82" y="0">.MW</tspan><tspan class="cls-6"><tspan x="0" y="80.06">Domains</tspan></tspan></text>
  <text class="cls-2" transform="translate(221.96 192)"><tspan x="0" y="0">By Cool Enterprises Limited</tspan></text>
  <path class="cls-1" d="M180.35,82.19h-42.64c-2.8,0-5.39-1.46-6.84-3.86-2.8-4.62-6.39-8.59-10.68-11.77-3.54-2.64-4.28-7.65-1.64-11.19,2.64-3.55,7.65-4.28,11.19-1.64,4.72,3.51,8.83,7.69,12.26,12.47h26.53c-3.42-6.6-8.09-12.61-13.81-17.7-3.3-2.94-3.59-7.99-.65-11.29,2.94-3.3,7.99-3.59,11.29-.65,10.71,9.53,18.51,21.65,22.56,35.05.03.09.05.17.07.26.73,2.39.3,5-1.17,7.03-1.5,2.08-3.92,3.31-6.48,3.31ZM188.08,72.17s0,0,0,0c0,0,0,0,0,0Z"/>
  <path class="cls-1" d="M111.21,196.38c-3.81,0-7.19-2.73-7.87-6.62-.77-4.35,2.14-8.5,6.49-9.26,25.9-4.56,48.09-22.25,59-46.28h-26.83c-10.7,14.89-27.56,23.65-45.95,23.65-31.36,0-56.87-25.87-56.87-57.66,0-.79.01-1.57.05-2.34.39-10.53,3.96-20.91,10.3-29.92,2.54-3.61,7.53-4.48,11.15-1.94,3.61,2.54,4.48,7.53,1.94,11.15-4.56,6.48-7.11,13.88-7.4,21.41-.03.6-.04,1.13-.04,1.66,0,22.97,18.33,41.66,40.87,41.66,14.28,0,27.29-7.4,34.81-19.8,1.45-2.39,4.04-3.85,6.84-3.85h42.64c2.53,0,4.91,1.19,6.42,3.22s1.97,4.65,1.25,7.07c-10.42,34.93-40.02,61.53-75.41,67.75-.47.08-.94.12-1.4.12Z"/>
  <g>
    <path class="cls-4" d="M71.01,64.01c-1.98,0-3.96-.73-5.51-2.2-3.2-3.04-3.33-8.11-.29-11.31l13.48-14.18c19.64-20.62,42.84-24.66,65.35-11.38,3.8,2.25,5.07,7.15,2.82,10.96-2.25,3.8-7.15,5.07-10.96,2.82-16.11-9.51-31.04-6.69-45.62,8.63l-13.48,14.18c-1.57,1.65-3.68,2.49-5.8,2.49Z"/>
    <path class="cls-4" d="M25.02,161.08c-2.48,0-4.93-1.15-6.49-3.32C6.41,140.98,0,121.08,0,100.21,0,46.28,31.02,10.14,80.95,5.88c4.4-.37,8.28,2.89,8.65,7.29.38,4.4-2.89,8.27-7.29,8.65C40.79,25.36,16,54.66,16,100.21c0,17.49,5.36,34.15,15.5,48.19,2.59,3.58,1.78,8.58-1.8,11.17-1.42,1.02-3.05,1.52-4.68,1.52Z"/>
    <path class="cls-4" d="M77.84,195.78c-.56,0-1.12-.06-1.68-.18-12.98-2.78-25.06-8.18-35.91-16.05-3.58-2.59-4.37-7.6-1.78-11.17,2.59-3.58,7.6-4.37,11.17-1.78,9.03,6.55,19.08,11.04,29.87,13.36,4.32.93,7.07,5.18,6.15,9.5-.8,3.75-4.12,6.33-7.81,6.33Z"/>
  </g>
</svg>